<svg width="48" height="42" viewBox="0 0 48 42" fill="none" xmlns="http://www.w3.org/2000/svg">
<path d="M13.9522 0H34.3625L47.841 20.9999H0.473694L13.9522 0Z" fill="#FABA19"/>
<path d="M34.3636 42H13.9533L0.474792 21.0001H47.8421L34.3636 42Z" fill="#FABA19"/>
<path d="M32.4992 21.45C32.7459 21.2015 32.7459 20.7985 32.4992 20.55L28.4799 16.5002C28.2332 16.2517 27.8334 16.2517 27.5867 16.5002C27.3401 16.7488 27.3401 17.1516 27.5867 17.4001L31.1595 21L27.5867 24.5998C27.3401 24.8483 27.3401 25.2512 27.5867 25.4998C27.8334 25.7483 28.2332 25.7483 28.4799 25.4998L32.4992 21.45ZM16.8947 21.6364H32.0526V20.3636H16.8947V21.6364Z" fill="#FFF7E9"/>
</svg>
