<svg width="121" height="105" viewBox="0 0 121 105" fill="none" xmlns="http://www.w3.org/2000/svg">
<path d="M59.8287 31.4695L41.148 41.7818L22.4673 31.4695L22.4673 10.8833L41.148 0.571116L59.8287 10.8833L59.8287 31.4695Z" stroke="white"/>
<path d="M116.829 62.4696L98.148 72.7818L79.4673 62.4696L79.4673 41.8834L98.148 31.5711L116.829 41.8834L116.829 62.4696Z" stroke="white"/>
<path d="M78.8287 62.4696L60.148 72.7818L41.4673 62.4696L41.4673 41.8834L60.148 31.5711L78.8287 41.8834L78.8287 62.4696Z" stroke="white"/>
<path d="M40.8287 62.4696L22.148 72.7818L3.46728 62.4696L3.46727 41.8834L22.148 31.5711L40.8287 41.8834L40.8287 62.4696Z" stroke="white"/>
<path d="M59.8287 93.4696L41.148 103.782L22.4673 93.4696L22.4673 72.8834L41.148 62.5711L59.8287 72.8834L59.8287 93.4696Z" stroke="white"/>
<path d="M97.8287 93.4696L79.148 103.782L60.4673 93.4696L60.4673 72.8834L79.148 62.5711L97.8287 72.8834L97.8287 93.4696Z" stroke="white"/>
<path d="M97.8287 31.4695L79.148 41.7818L60.4673 31.4695L60.4673 10.8833L79.148 0.571116L97.8287 10.8833L97.8287 31.4695Z" stroke="white"/>
</svg>
